<svg xmlns="http://www.w3.org/2000/svg" viewBox="0 0 66.98 31.32"><defs><style>.cls-1{fill:#fff;}</style></defs><title>Asset 22</title><g id="Layer_2" data-name="Layer 2"><g id="Layer_1-2" data-name="Layer 1"><path class="cls-1" d="M8.5,12.83l-.22.08-1,.35-.22.08.79,2.23v0a1.43,1.43,0,0,1-.2,1.53,1.76,1.76,0,0,1-.66.43,2.1,2.1,0,0,1-.91.15,1.21,1.21,0,0,1-.63-.25,4.43,4.43,0,0,1-1.12-1.86L1.77,9.3l0,0a1.59,1.59,0,0,1,.17-1.77,2.28,2.28,0,0,1,.9-.61,2,2,0,0,1,1-.15,1.18,1.18,0,0,1,.6.21c.34.27.53.71.87,1.66l.38,1.05.22-.08,1-.35.22-.08-.68-2A2.93,2.93,0,0,0,5.72,6a3.06,3.06,0,0,0-3.39-.36A3.52,3.52,0,0,0,.13,7.73a3.06,3.06,0,0,0,.31,2.39l2.87,6.67a4.54,4.54,0,0,0,.86,1.46,2.66,2.66,0,0,0,2,.85,3.39,3.39,0,0,0,1.23-.25c1.72-.68,2.11-1.75,2.12-2.53A3.34,3.34,0,0,0,9.24,15Z"/><path class="cls-1" d="M15.49,9.22l1.46,6.42.23-.05.92-.21.23,0L15.47,2l0-.11-.23.05-1.1.24-.23.05L15.21,8c-1.31.3-2,.49-3.32.85L10.33,3.24l0-.11-.22.06L9,3.5l-.22.07,3.88,13.22.22-.07.89-.26L14,16.4l-1.77-6.34C13.5,9.7,14.21,9.52,15.49,9.22Z"/><path class="cls-1" d="M23.14.69,23.07.51l-.18,0-1.54.2-.18,0V1c-.43,5.49-.56,8.17-.62,13.66v.28l.27,0,1-.17.19,0v-.2c0-1.58,0-2.4.1-3.92,1-.15,1.57-.23,2.59-.34.43,1.47.66,2.26,1.07,3.77l.05.19.19,0L27,14l.28,0-.07-.27C25.74,8.46,24.94,5.9,23.14.69ZM24.25,8.9c-.83.1-1.33.16-2.12.28.1-2.33.17-3.55.34-5.92C23.22,5.53,23.59,6.68,24.25,8.9Z"/><path class="cls-1" d="M35.53,3.23c0-1,.05-2-.89-2.65a4.86,4.86,0,0,0-3-.57h0c-1,0-1.49,0-2.5.08h-.23L29.25,8l.27,5.87h.23l.94,0h.23l-.2-6.07,1.26,0a3.94,3.94,0,0,0,2.8-.91,2.67,2.67,0,0,0,.71-2.07ZM34,4.74a1.63,1.63,0,0,1-.43,1.31,2.12,2.12,0,0,1-1.45.42l-1.45,0-.17-5.23,1.45,0a2.4,2.4,0,0,1,1.56.28c.51.33.53.86.51,2l0,1.15Z"/><path class="cls-1" d="M41.79,14.32l.06-.18C43.19,10,44,7.66,45.34,4.22l0,.29c-.52,3.45-.88,5.82-1.5,9.85l0,.23.23,0,.89.14.23,0,0-.23c.84-5.38,1.25-8,2-13.16l0-.23-.23,0L45.37.9l-.18,0L45.12,1c-1.59,4.06-2.36,6.21-3.59,10-.34-3.92-.62-6.2-1.25-10.54l0-.18h-.18L38.43.16H38.2l0,.23c-.4,5.46-.59,8.11-.95,13.28l0,.23h.23l.94.06.23,0,0-.23c.27-3.67.43-6,.65-8.94l.09-1.25c.53,3.68.8,6.1,1.17,10.41l0,.19.19,0,.86.1Z"/><path class="cls-1" d="M53.22,2.36l-.18,0L53,2.49C50.54,7.43,49.44,9.88,47.37,15l-.11.26.27.06,1,.21.19,0,.07-.18c.62-1.49.92-2.22,1.53-3.61,1,.23,1.55.38,2.54.65-.14,1.53-.21,2.32-.38,3.9l0,.19.19.05,1,.29.27.08,0-.28c.59-5.47.78-8.15,1-13.64V2.8l-.18,0Zm.12,2.76c-.13,2.43-.21,3.64-.4,5.91-.8-.22-1.3-.35-2.09-.53C51.79,8.39,52.31,7.28,53.34,5.12Z"/><path class="cls-1" d="M66.77,7l-1-.44-.22-.09-.09.22c-1.66,4.17-2.62,6.55-4.07,10.14.55-4.08.78-6.7,1-11.41V5.27l-.16-.06-1.57-.56-.22-.07L56.09,17.38,56,17.6l.22.08.86.3.22.08.23-.65c1.37-3.93,2.18-6.24,3.44-9.89-.23,4.15-.49,6.64-1.12,11.34l0,.18.17.07.57.24.26.11.52.22.21.09.09-.21,2.62-6.11L67,7.12Z"/><path class="cls-1" d="M17.23,27.35h1.41V28.7A1.66,1.66,0,0,1,18.09,30a.89.89,0,0,1-.6.24.92.92,0,0,1-.85-.54,3.39,3.39,0,0,1-.17-1.47V23.56c0-.55,0-1,.38-1.35a1.1,1.1,0,0,1,.71-.21.9.9,0,0,1,.91.48,2.76,2.76,0,0,1,.12.94v1.21h1.06V23.08a3.43,3.43,0,0,0-.08-.77,1.85,1.85,0,0,0-2-1.31,2.2,2.2,0,0,0-1.32.33,1.49,1.49,0,0,0-.35.29,2.43,2.43,0,0,0-.52,1.79v5.06a3.18,3.18,0,0,0,.4,2,1.88,1.88,0,0,0,1.61.83,2,2,0,0,0,1.38-.53v.39h.93V26.34h-2.5Z"/><path class="cls-1" d="M24.76,28.48c0,.91,0,1.33-.35,1.6a1,1,0,0,1-.65.18,1,1,0,0,1-.87-.39,2,2,0,0,1-.18-1.1V21.1H21.63v7.67A2.74,2.74,0,0,0,22,30.56a1.28,1.28,0,0,0,.35.37,2.3,2.3,0,0,0,1.33.4,2,2,0,0,0,2-1.24v0a3,3,0,0,0,.14-1V21.1H24.76Z"/><rect class="cls-1" x="27.84" y="21.1" width="1.12" height="10.05"/><polygon class="cls-1" points="30.25 22.13 31.91 22.13 31.91 31.16 33.01 31.16 33.01 22.13 34.7 22.13 34.7 21.1 30.25 21.1 30.25 22.13"/><path class="cls-1" d="M38.12,21H36.84L35.07,30.9l0,.25h1.14l.5-2.93H38.3l.49,2.93h1.14l-1.78-9.93Zm0,6.12H36.84l.64-3.72Z"/><path class="cls-1" d="M44.43,26.33l0-.11,0,.11.07,0a1.69,1.69,0,0,0,1-1.14,3.41,3.41,0,0,0,.06-.67V23A1.79,1.79,0,0,0,45,21.49a2.25,2.25,0,0,0-1.48-.39H41.45V31.16h1.09V26.47h.68L45,31.16h1.16l-1.77-4.8Zm0-1.66a.66.66,0,0,1-.44.72,1.49,1.49,0,0,1-.5.07h-1V22.11h1a1.14,1.14,0,0,1,.58.11c.3.17.32.58.32,1Z"/><path class="cls-1" d="M50,25.84l-.11-.11c-.22-.23-.44-.47-.64-.72a2.28,2.28,0,0,1-.77-1.81c0-.58.12-.94.37-1.1a1.09,1.09,0,0,1,.57-.13.77.77,0,0,1,.87.67,2.53,2.53,0,0,1,0,.59v1.07h1.08V23.4a2.3,2.3,0,0,0-.76-2.13,2.29,2.29,0,0,0-1.24-.3,1.78,1.78,0,0,0-2,1.58,4.49,4.49,0,0,0-.06.76,3.12,3.12,0,0,0,.58,1.91,10.22,10.22,0,0,0,1.13,1.25,7.73,7.73,0,0,1,1,1.19,2.12,2.12,0,0,1,.31,1.26c0,.66-.13,1-.43,1.22a1.08,1.08,0,0,1-.58.14,1.05,1.05,0,0,1-1.19-1.13c0-.13,0-.25,0-.38s0-.14,0-.21v-1H47.13v1.58a2.33,2.33,0,0,0,.12.85,1.87,1.87,0,0,0,.53.78,2.08,2.08,0,0,0,.35.26,2.64,2.64,0,0,0,1.2.26,2,2,0,0,0,1.78-.78l0,0a3.11,3.11,0,0,0,.37-1.69,2.92,2.92,0,0,0-.65-2A10.47,10.47,0,0,0,50,25.84Z"/></g></g></svg>